# xmcd
#
# Track frame offsets:
#	150
#	11003
#	14344
#	36614
#	40368
#	50925
#	53248
#	64778
#	70961
#	83023
#	85681
#	94062
#	96374
#	104420
#	107887
#	117189
#	123293
#	126450
#	127671
#	138824
#	141559
#	150194
#	151394
#	159319
#	161682
#	173123
#	179611
#	190273
#	192920
#	202464
#	203657
#	216333
#	218142
#	226925
#	229970
#	237361
#	240940
#	243180
#	253210
#	255268
#	266831
#	267522
#	273493
#	277521
#	286090
#	289631
#	298680
#	300615
#	308207
#	311380
#
# Disc length: 4260 seconds
#
# Revision: 0
# Processed by: cddbd v1.5.2PL0 Copyright (c) Steve Scherf et al.
# Submitted via: EZCDAudioConverter 7.1.2.1
#
DISCID=e210a232
DTITLE=Harold Hausenfluck - Field Recorders' Collective Volume 2: Banjo Worksh
DTITLE=op FRC702
DYEAR=1900
DGENRE=Old-Time Country
TTITLE0=Hush Darling (gDGBD, down half step)
TTITLE1=John Henry – intro 
TTITLE2=John Henry [Dave Macon and Abe Horton]
TTITLE3=Lost Indian – intro (eCGCD, up half step)
TTITLE4=Lost Indian [Wade Ward]
TTITLE5=Sandy River – intro (near gDGDE)
TTITLE6=Sandy River [Oscar Wright]
TTITLE7=Half Shaved – intro (g#EF#BE) 
TTITLE8=Half Shaved [Wade Ward]
TTITLE9=Half Shaved – intro (eC#F#BE)
TTITLE10=Half Shaved [Dent Wimmer]
TTITLE11=Shaving a Dead Man – intro (g#BEBE)
TTITLE12=Shaving a Dead Man [Oscar Wright]
TTITLE13=Lonesome Road – intro (g#BEBE)
TTITLE14=Lonesome Road [Melvin Felts]
TTITLE15=Old Jimmy Sutton – intro (gCGBD, down half step)
TTITLE16=Old Jimmy Sutton [Wade Ward]
TTITLE17=Old Jimmy Sutton – intro
TTITLE18=Old Jimmy Sutton (tuning gCGBD, down half step)
TTITLE19=Sap Sucker Peckin’ on a Long Leaf Pine – intro (g#EG#BE)
TTITLE20=Sap Sucker Peckin’ on a Long Leaf Pine [Wade Ward]
TTITLE21=Old Reuben – intro (g#EG#BE)
TTITLE22=Old Reuben [Wade Ward]
TTITLE23=Cumberland Gap – intro (g#C#F#BE)
TTITLE24=Cumberland Gap
TTITLE25=Big Eyed Rabbits – intro (fFGCD)
TTITLE26=Big Eyed Rabbits [Matokie Slaughter]
TTITLE27=Little Birdie – intro (eCGAD)
TTITLE28=Little Birdie [Roscoe Holcomb and Gaither Carlton]
TTITLE29=Little Brown Jug – intro (gCGCD)
TTITLE30=Little Brown Jug
TTITLE31=Ain’t That Trouble in Mind – intro
TTITLE32=Ain’t That Trouble in Mind [Abe Horton] (gDGBD)
TTITLE33=Sally Ann – intro
TTITLE34=Sally Ann [Russell Higgins]
TTITLE35=Sally Ann – slow demonstration
TTITLE36=Fortune – intro
TTITLE37=Fortune
TTITLE38=Sandy River Belle – intro
TTITLE39=Sandy River Belle [Abe Horton]
TTITLE40=Charmin’ Betsy – intro (gDGBD)
TTITLE41=Charmin’ Betsy
TTITLE42=Banjo Pickin’ Girl – intro
TTITLE43=Banjo Pickin’ Girl (tuning gDGBD)
TTITLE44=Little Birdie – intro (eBEBE)
TTITLE45=Little Birdie [Glen Smith]
TTITLE46=John Henry – intro (eBEBE)
TTITLE47=John Henry [Glen Smith]
TTITLE48=My Gal Don’t Pay Me No Mind – intro
TTITLE49=My Gal Don’t Pay Me No Mind [Joe Birchfield]
EXTD=
EXTT0=
EXTT1=
EXTT2=
EXTT3=
EXTT4=
EXTT5=
EXTT6=
EXTT7=
EXTT8=
EXTT9=
EXTT10=
EXTT11=
EXTT12=
EXTT13=
EXTT14=
EXTT15=
EXTT16=
EXTT17=
EXTT18=
EXTT19=
EXTT20=
EXTT21=
EXTT22=
EXTT23=
EXTT24=
EXTT25=
EXTT26=
EXTT27=
EXTT28=
EXTT29=
EXTT30=
EXTT31=
EXTT32=
EXTT33=
EXTT34=
EXTT35=
EXTT36=
EXTT37=
EXTT38=
EXTT39=
EXTT40=
EXTT41=
EXTT42=
EXTT43=
EXTT44=
EXTT45=
EXTT46=
EXTT47=
EXTT48=
EXTT49=
PLAYORDER=
